<svg xmlns="http://www.w3.org/2000/svg" xmlns:xlink="http://www.w3.org/1999/xlink" version="1.1" x="0px" y="0px" viewBox="0 0 64 80" style="enable-background:new 0 0 64 64;" xml:space="preserve"><g><path d="M36.782,1.366c-1.451-0.228-2.921,0.194-4.035,1.149c-0.569,0.487-1.011,1.089-1.309,1.756C29.98,2.292,27.641,1,25,1   c-2.956,0-5.536,1.615-6.921,4.006C18.053,5.005,18.026,5,18,5c-4.346,0-7.886,3.485-7.99,7.806   c-1.387,0.802-2.421,2.141-2.822,3.732C4.114,17.701,2,20.677,2,24c0,1.235,0.289,2.452,0.842,3.559C1.649,29.123,1,31.029,1,33   c0,2.305,0.892,4.511,2.461,6.175C3.166,40.065,3,41.013,3,42c0,4.444,3.26,8.216,7.622,8.887c0.826,1.832,2.418,3.25,4.415,3.829   C15.403,59.344,19.279,63,24,63c2.984,0,5.626-1.466,7.264-3.709c0.285,0.841,0.792,1.601,1.483,2.193   c0.917,0.786,2.075,1.209,3.265,1.209c0.256,0,0.514-0.02,0.771-0.06C51.974,60.281,63,47.397,63,32S51.974,3.719,36.782,1.366z    M24,61c-3.859,0-7-3.141-7-7s3.141-7,7-7v-2c-4.493,0-8.216,3.312-8.883,7.621C13.264,51.872,12,50.077,12,48c0-2.757,2.243-5,5-5   v-2c-3.859,0-7,3.141-7,7c0,0.242,0.015,0.48,0.039,0.716C7.103,47.861,5,45.148,5,42c0-3.859,3.141-7,7-7v-2   c-3.196,0-6.001,1.679-7.598,4.197C3.501,35.995,3,34.525,3,33c0-1.718,0.637-3.374,1.792-4.664l0.498-0.557l-0.393-0.636   C4.311,26.192,4,25.105,4,24c0-2.179,1.215-4.159,3.058-5.208C7.448,21.727,9.96,24,13,24v-2c-2.206,0-4-1.794-4-4s1.794-4,4-4   s4,1.794,4,4h2c0-3.309-2.691-6-6-6c-0.314,0-0.62,0.032-0.922,0.078c0.408-2.627,2.521-4.693,5.172-5.026   C17.093,7.677,17,8.327,17,9c0,4.411,3.589,8,8,8v-2c-3.309,0-6-2.691-6-6s2.691-6,6-6s6,2.691,6,6v45C31,57.859,27.859,61,24,61z    M36.476,60.657c-0.87,0.139-1.758-0.117-2.427-0.691C33.382,59.395,33,58.564,33,57.688V6.312c0-0.877,0.382-1.707,1.049-2.278   c0.551-0.473,1.248-0.728,1.964-0.728c0.154,0,0.309,0.012,0.463,0.036C50.457,5.508,61,17.828,61,32S50.457,58.492,36.476,60.657z   "/><path d="M42,25v-7h-2v7c0,0.552-0.448,1-1,1h-4v2h4C40.654,28,42,26.654,42,25z"/><path d="M41,16c1.654,0,3-1.346,3-3s-1.346-3-3-3s-3,1.346-3,3S39.346,16,41,16z M41,12c0.552,0,1,0.448,1,1s-0.448,1-1,1   s-1-0.448-1-1S40.448,12,41,12z"/><path d="M40,39v7h2v-7c0-1.654-1.346-3-3-3h-4v2h4C39.552,38,40,38.448,40,39z"/><path d="M41,48c-1.654,0-3,1.346-3,3s1.346,3,3,3s3-1.346,3-3S42.654,48,41,48z M41,52c-0.552,0-1-0.448-1-1s0.448-1,1-1   s1,0.448,1,1S41.552,52,41,52z"/><path d="M48,28c0,1.654-1.346,3-3,3H35v2h10c2.757,0,5-2.243,5-5v-3h-2V28z"/><path d="M49,17c-1.654,0-3,1.346-3,3s1.346,3,3,3s3-1.346,3-3S50.654,17,49,17z M49,21c-0.552,0-1-0.448-1-1s0.448-1,1-1   s1,0.448,1,1S49.552,21,49,21z"/><rect x="48" y="36" width="2" height="10"/><rect x="53" y="22" width="2" height="16"/><rect x="53" y="40" width="2" height="2"/><rect x="25" y="8" width="2" height="2"/><rect x="20" y="31" width="2" height="2"/><rect x="26" y="53" width="2" height="2"/><rect x="9" y="38" width="2" height="2"/><rect x="27" y="24" width="2" height="2"/><rect x="8" y="26" width="2" height="2"/></g><text x="0" y="79" fill="#000000" font-size="5px" font-weight="bold" font-family="'Helvetica Neue', Helvetica, Arial-Unicode, Arial, Sans-serif">Created by Eucalyp</text><text x="0" y="84" fill="#000000" font-size="5px" font-weight="bold" font-family="'Helvetica Neue', Helvetica, Arial-Unicode, Arial, Sans-serif">from the Noun Project</text></svg>