<?xml version="1.0" encoding="utf-8" standalone="no"?>
<!DOCTYPE svg PUBLIC "-//W3C//DTD SVG 1.1//EN"
  "http://www.w3.org/Graphics/SVG/1.1/DTD/svg11.dtd">
<!-- Created with matplotlib (http://matplotlib.org/) -->
<svg height="216pt" version="1.1" viewBox="0 0 216 216" width="216pt" xmlns="http://www.w3.org/2000/svg" xmlns:xlink="http://www.w3.org/1999/xlink">
 <defs>
  <style type="text/css">
*{stroke-linecap:butt;stroke-linejoin:round;}
  </style>
 </defs>
 <g id="figure_1">
  <g id="patch_1">
   <path d="M 0 216 
L 216 216 
L 216 0 
L 0 0 
z
" style="fill:none;"/>
  </g>
  <g id="axes_1">
   <g id="line2d_1">
    <path clip-path="url(#pc21d90b1fd)" d="M -1 193.824087 
L 3.215769 191.555914 
L 7.859946 188.806408 
L 12.504122 185.792498 
L 17.148299 182.517262 
L 21.792475 178.989569 
L 27.017174 174.738342 
L 32.822394 169.70196 
L 39.208137 163.851863 
L 47.915967 155.537401 
L 61.848497 142.219585 
L 67.653717 136.993544 
L 72.297894 133.076953 
L 76.361548 129.897752 
L 80.425202 126.993361 
L 83.908335 124.752242 
L 87.391467 122.764326 
L 90.874599 121.050026 
L 93.77721 119.843428 
L 96.67982 118.848134 
L 99.58243 118.071495 
L 102.48504 117.519282 
L 105.387651 117.195622 
L 108.290261 117.102939 
L 111.192871 117.241929 
L 114.095482 117.611549 
L 116.998092 118.20903 
L 119.900702 119.029913 
L 122.803312 120.068105 
L 125.705923 121.315949 
L 129.189055 123.077166 
L 132.672187 125.108764 
L 136.15532 127.389939 
L 140.218974 130.336043 
L 144.282628 133.551164 
L 148.926805 137.501354 
L 154.732025 142.757925 
L 162.278812 149.92449 
L 179.113952 166.011052 
L 185.499694 171.752762 
L 191.304915 176.663039 
L 196.529613 180.784177 
L 201.17379 184.187134 
L 205.817966 187.33244 
L 210.462142 190.214195 
L 215.106319 192.831974 
L 217 193.824087 
L 217 193.824087 
" style="fill:none;stroke:#e1e1e1;stroke-linecap:square;stroke-width:8;"/>
   </g>
   <g id="line2d_2">
    <path clip-path="url(#pc21d90b1fd)" d="M -1 197.31476 
L 2.918693 195.341392 
L 7.175151 192.941095 
L 11.431609 190.262767 
L 15.688067 187.298821 
L 19.944525 184.046375 
L 24.200983 180.508048 
L 28.457441 176.69269 
L 33.245956 172.089103 
L 38.566529 166.627424 
L 44.419159 160.27266 
L 51.86796 151.832101 
L 65.701449 136.077654 
L 71.022021 130.375575 
L 75.278479 126.102224 
L 79.00288 122.633431 
L 82.727281 119.464481 
L 85.919624 117.01922 
L 89.111968 114.850226 
L 92.304311 112.979771 
L 94.964597 111.663264 
L 97.624884 110.57731 
L 100.28517 109.729927 
L 102.945456 109.127414 
L 105.605742 108.774272 
L 108.266029 108.673146 
L 110.926315 108.824796 
L 113.586601 109.228084 
L 116.246887 109.87999 
L 118.907174 110.775647 
L 121.56746 111.908407 
L 124.227746 113.269917 
L 126.888032 114.850226 
L 130.080376 117.01922 
L 133.272719 119.464481 
L 136.99712 122.633431 
L 140.721521 126.102224 
L 144.977979 130.375575 
L 149.766494 135.49298 
L 156.151181 142.657152 
L 174.773185 163.778273 
L 180.625815 169.945272 
L 185.41433 174.685749 
L 190.202845 179.109065 
L 194.459303 182.752671 
L 198.715761 186.11295 
L 202.972219 189.185024 
L 207.228677 191.969804 
L 211.485135 194.473209 
L 215.741593 196.705349 
L 217 197.31476 
L 217 197.31476 
" style="fill:none;stroke:#bdbdbd;stroke-linecap:square;stroke-width:8;"/>
   </g>
   <g id="line2d_3">
    <path clip-path="url(#pc21d90b1fd)" d="M -1 201.289877 
L 2.44428 199.824836 
L 6.273966 197.963363 
L 10.103652 195.83795 
L 13.933338 193.430226 
L 17.763024 190.724436 
L 21.59271 187.708323 
L 25.422396 184.374058 
L 29.252082 180.719155 
L 33.081768 176.747348 
L 36.911454 172.469392 
L 41.219851 167.314021 
L 46.006958 161.206511 
L 51.272776 154.112227 
L 58.453437 144.02946 
L 69.942495 127.879237 
L 74.729603 121.54173 
L 78.559289 116.792167 
L 81.910264 112.936818 
L 85.261239 109.414728 
L 88.133504 106.696971 
L 91.005768 104.286269 
L 93.399322 102.529855 
L 95.792876 101.016621 
L 98.18643 99.757629 
L 100.579983 98.762161 
L 102.973537 98.037609 
L 105.367091 97.589379 
L 107.281934 97.432074 
L 109.196777 97.454559 
L 111.11162 97.656728 
L 113.505174 98.160557 
L 115.898727 98.93979 
L 118.292281 99.988616 
L 120.685835 101.299257 
L 123.079389 102.862067 
L 125.472942 104.665643 
L 128.345207 107.129317 
L 131.217471 109.895649 
L 134.568447 113.468324 
L 137.919422 117.367232 
L 141.749108 122.157541 
L 146.536215 128.53207 
L 152.759455 137.222806 
L 166.642067 156.730628 
L 171.907885 163.693474 
L 176.694992 169.648059 
L 181.003389 174.645673 
L 184.833075 178.772365 
L 188.662761 182.586608 
L 192.492447 186.08125 
L 196.322133 189.255773 
L 200.151819 192.115448 
L 203.981505 194.670433 
L 207.811191 196.934848 
L 211.640877 198.925865 
L 215.470563 200.662844 
L 217 201.289877 
L 217 201.289877 
" style="fill:none;stroke:#999999;stroke-linecap:square;stroke-width:8;"/>
   </g>
   <g id="line2d_4">
    <path clip-path="url(#pc21d90b1fd)" d="M -1 205.349536 
L 2.716968 204.250756 
L 6.484552 202.904366 
L 9.833515 201.483816 
L 13.182478 199.82716 
L 16.531441 197.909811 
L 19.880405 195.707774 
L 22.810747 193.529629 
L 25.74109 191.102401 
L 28.671433 188.414149 
L 31.601776 185.455273 
L 34.950739 181.733874 
L 38.299702 177.645892 
L 41.648666 173.193731 
L 44.997629 168.387602 
L 48.765213 162.581405 
L 52.951417 155.683071 
L 57.556241 147.643328 
L 63.835547 136.16553 
L 75.138298 115.39887 
L 79.324502 108.195764 
L 83.092086 102.168196 
L 86.022429 97.86258 
L 88.952772 93.953909 
L 91.464494 90.959736 
L 93.976216 88.326491 
L 96.069318 86.427547 
L 98.16242 84.811986 
L 100.255522 83.491659 
L 102.348625 82.47633 
L 104.023106 81.88882 
L 105.697588 81.5042 
L 107.372069 81.324314 
L 109.046551 81.350027 
L 110.721033 81.581216 
L 112.395514 82.01677 
L 114.069996 82.6546 
L 115.744478 83.491659 
L 117.83758 84.811986 
L 119.930682 86.427547 
L 122.023784 88.326491 
L 124.116886 90.49502 
L 126.628608 93.431069 
L 129.140331 96.70292 
L 132.070673 100.90076 
L 135.419637 106.131794 
L 139.18722 112.46434 
L 143.792045 120.666613 
L 152.164453 136.16553 
L 159.281 149.134805 
L 163.885824 157.097124 
L 168.072028 163.906453 
L 171.839612 169.621443 
L 175.188575 174.340496 
L 178.537538 178.70225 
L 181.886502 182.698526 
L 185.235465 186.328732 
L 188.584428 189.598895 
L 191.933391 192.520632 
L 195.282355 195.11009 
L 198.631318 197.386905 
L 201.980281 199.373216 
L 205.329244 201.092751 
L 208.678208 202.570017 
L 212.445791 203.972945 
L 216.213375 205.134535 
L 217 205.349536 
L 217 205.349536 
" style="fill:none;stroke:#757575;stroke-linecap:square;stroke-width:8;"/>
   </g>
   <g id="line2d_5">
    <path clip-path="url(#pc21d90b1fd)" d="M -1 208.505545 
L 3.680187 207.923265 
L 7.859946 207.193761 
L 11.691391 206.299423 
L 15.174524 205.252803 
L 18.309343 204.081649 
L 21.444162 202.655338 
L 24.230668 201.141513 
L 27.017174 199.36606 
L 29.803679 197.299436 
L 32.241872 195.229117 
L 34.680065 192.894124 
L 37.118257 190.276318 
L 39.55645 187.359154 
L 41.994643 184.128277 
L 44.781148 180.037064 
L 47.567654 175.509562 
L 50.35416 170.541368 
L 53.140666 165.136484 
L 56.275485 158.551243 
L 59.758617 150.649855 
L 63.590063 141.33522 
L 68.118135 129.673333 
L 76.825966 106.391309 
L 81.702351 93.722425 
L 85.185483 85.237194 
L 88.320302 78.201673 
L 90.758495 73.223322 
L 93.196688 68.7499 
L 95.286567 65.363904 
L 97.376446 62.428543 
L 99.118013 60.348802 
L 100.859579 58.618483 
L 102.601145 57.250344 
L 103.994398 56.423518 
L 105.387651 55.83899 
L 106.780904 55.499561 
L 108.174157 55.406859 
L 109.56741 55.561331 
L 110.960662 55.962234 
L 112.353915 56.607644 
L 113.747168 57.494471 
L 115.140421 58.618483 
L 116.881987 60.348802 
L 118.623554 62.428543 
L 120.36512 64.842504 
L 122.454999 68.155697 
L 124.544879 71.890896 
L 126.983071 76.731547 
L 129.769577 82.820568 
L 132.904396 90.256616 
L 136.735842 99.971175 
L 142.657167 115.719894 
L 150.320058 136.025882 
L 154.499816 146.489897 
L 157.982949 154.673692 
L 161.466081 162.274109 
L 164.6009 168.565203 
L 167.387406 173.698113 
L 170.173912 178.390784 
L 172.960418 182.644606 
L 175.746924 186.468621 
L 178.53343 189.87827 
L 181.319935 192.894124 
L 184.106441 195.540642 
L 186.892947 197.845009 
L 189.679453 199.836062 
L 192.465959 201.543351 
L 195.252465 202.996328 
L 198.387284 204.362617 
L 201.522103 205.482164 
L 205.005235 206.480507 
L 208.836681 207.331578 
L 213.016439 208.024009 
L 217 208.505545 
L 217 208.505545 
" style="fill:none;stroke:#515151;stroke-linecap:square;stroke-width:8;"/>
   </g>
   <g id="line2d_6">
    <path clip-path="url(#pc21d90b1fd)" d="M -1 209.616822 
L 11.292535 209.44902 
L 17.782969 209.159083 
L 22.456082 208.748505 
L 26.350342 208.189157 
L 29.46575 207.534415 
L 32.321541 206.716203 
L 34.917715 205.741627 
L 37.254271 204.633391 
L 39.590827 203.262702 
L 41.667766 201.78643 
L 43.744705 200.030662 
L 45.821644 197.957923 
L 47.898582 195.529248 
L 49.975521 192.704957 
L 52.05246 189.445627 
L 54.129399 185.713242 
L 56.206338 181.472526 
L 58.283277 176.692429 
L 60.360215 171.347737 
L 62.437154 165.42075 
L 64.77371 158.046728 
L 67.110267 149.929856 
L 69.70644 140.070648 
L 72.562231 128.282608 
L 75.677639 114.459226 
L 79.831517 94.912017 
L 88.658507 52.944634 
L 91.514298 40.56221 
L 93.850854 31.322187 
L 95.927793 23.955329 
L 97.745114 18.2695 
L 99.302819 14.023521 
L 100.860523 10.40335 
L 102.15861 7.892121 
L 103.456696 5.860369 
L 104.495166 4.59042 
L 105.533635 3.643088 
L 106.572105 3.022907 
L 107.350957 2.774312 
L 108.129809 2.712116 
L 108.908661 2.836489 
L 109.687513 3.147092 
L 110.725982 3.849401 
L 111.764452 4.877872 
L 112.802921 6.227588 
L 114.101008 8.356552 
L 115.399095 10.961566 
L 116.956799 14.688839 
L 118.514503 19.035009 
L 120.331824 24.827772 
L 122.408763 32.302235 
L 124.745319 41.643052 
L 127.60111 54.117842 
L 131.235753 71.114933 
L 141.620447 120.327103 
L 144.735856 133.755972 
L 147.591647 145.107693 
L 150.18782 154.529966 
L 152.524376 162.235842 
L 154.860933 169.194028 
L 157.197489 175.41002 
L 159.274428 180.329166 
L 161.351366 184.702016 
L 163.428305 188.558315 
L 165.505244 191.932428 
L 167.582183 194.861816 
L 169.659122 197.385668 
L 171.736061 199.543695 
L 173.812999 201.375123 
L 175.889938 202.917861 
L 177.966877 204.207867 
L 180.303433 205.398684 
L 182.899607 206.449241 
L 185.49578 207.26401 
L 188.611189 207.994625 
L 191.986214 208.553624 
L 196.140092 209.004398 
L 201.332439 209.328051 
L 208.601725 209.535191 
L 217 209.616822 
L 217 209.616822 
" style="fill:none;stroke:#2d2d2d;stroke-linecap:square;stroke-width:8;"/>
   </g>
  </g>
 </g>
 <defs>
  <clipPath id="pc21d90b1fd">
   <rect height="216" width="216" x="0" y="0"/>
  </clipPath>
 </defs>
</svg>
